<?xml version="1.0" encoding="UTF-8"?>
<svg width="120px" height="120px" viewBox="0 0 120 120" version="1.1" xmlns="http://www.w3.org/2000/svg" xmlns:xlink="http://www.w3.org/1999/xlink">
    <!-- Generator: Sketch 50.2 (55047) - http://www.bohemiancoding.com/sketch -->
    <title>Artboard 3</title>
    <desc>Created with Sketch.</desc>
    <defs>
        <linearGradient x1="-0.134599316%" y1="50.0701861%" x2="99.9876946%" y2="50.0701861%" id="linearGradient-1">
            <stop stop-color="#FFDE39" offset="0%"></stop>
            <stop stop-color="#FFD939" offset="26.26%"></stop>
            <stop stop-color="#FFC939" offset="59.06%"></stop>
            <stop stop-color="#FFB039" offset="95.21%"></stop>
            <stop stop-color="#FFAC39" offset="100%"></stop>
        </linearGradient>
        <linearGradient x1="21.2917431%" y1="81.8983165%" x2="77.830581%" y2="19.6484848%" id="linearGradient-2">
            <stop stop-color="#00C2A9" offset="0%"></stop>
            <stop stop-color="#037C68" offset="100%"></stop>
        </linearGradient>
        <linearGradient x1="18.9102389%" y1="76.7188356%" x2="75.7494881%" y2="19.6849315%" id="linearGradient-3">
            <stop stop-color="#00C2A9" offset="0%"></stop>
            <stop stop-color="#037C68" offset="100%"></stop>
        </linearGradient>
        <linearGradient x1="50.0065442%" y1="0.039010989%" x2="50.0065442%" y2="99.96%" id="linearGradient-4">
            <stop stop-color="#00C2A9" offset="0%"></stop>
            <stop stop-color="#00BDA5" offset="19.54%"></stop>
            <stop stop-color="#01AD99" offset="43.94%"></stop>
            <stop stop-color="#029484" offset="70.92%"></stop>
            <stop stop-color="#037168" offset="99.59%"></stop>
            <stop stop-color="#037068" offset="100%"></stop>
        </linearGradient>
        <linearGradient x1="-0.0247626282%" y1="50.0701861%" x2="100.097683%" y2="50.0701861%" id="linearGradient-5">
            <stop stop-color="#FFDE39" offset="0%"></stop>
            <stop stop-color="#FFD939" offset="26.26%"></stop>
            <stop stop-color="#FFC939" offset="59.06%"></stop>
            <stop stop-color="#FFB039" offset="95.21%"></stop>
            <stop stop-color="#FFAC39" offset="100%"></stop>
        </linearGradient>
        <linearGradient x1="0.0078458362%" y1="50.0064694%" x2="99.9720578%" y2="50.0064694%" id="linearGradient-6">
            <stop stop-color="#00C2A9" offset="0%"></stop>
            <stop stop-color="#00BDA5" offset="19.54%"></stop>
            <stop stop-color="#01AD99" offset="43.94%"></stop>
            <stop stop-color="#029484" offset="70.92%"></stop>
            <stop stop-color="#037168" offset="99.59%"></stop>
            <stop stop-color="#037068" offset="100%"></stop>
        </linearGradient>
    </defs>
    <g id="Artboard-3" stroke="none" stroke-width="1" fill="none" fill-rule="evenodd">
        <g id="compete-copy" transform="translate(4.000000, 8.000000)" fill-rule="nonzero">
            <path d="M26.8183486,71.6244444 L45.2110092,89.9222222 C45.5706422,90.28 45.5706422,90.8933333 45.2110092,91.2511111 L41.306422,95.1355556 C40.946789,95.4933333 40.3302752,95.4933333 39.9706422,95.1355556 L33.3944954,88.5933333 L27.1779817,94.7777778 C28,97.4866667 27.3834862,100.553333 25.2256881,102.7 C22.1431193,105.766667 17.1082569,105.766667 13.9743119,102.7 C10.8917431,99.6333333 10.8917431,94.6244444 13.9743119,91.5066667 C16.1321101,89.36 19.2146789,88.6955556 21.9376147,89.5644444 L28.1541284,83.38 L21.5779817,76.8377778 C21.2183486,76.48 21.2183486,75.8666667 21.5779817,75.5088889 L25.4825688,71.6244444 C25.8422018,71.2666667 26.4587156,71.2666667 26.8183486,71.6244444 Z" id="Shape" fill="#7C7C7C"></path>
            <path d="M26.8183486,71.6244444 L45.2110092,89.9222222 C45.5706422,90.28 45.5706422,90.8933333 45.2110092,91.2511111 L41.306422,95.1355556 C40.946789,95.4933333 40.3302752,95.4933333 39.9706422,95.1355556 L33.3944954,88.5933333 L27.1779817,94.7777778 C28,97.4866667 27.3834862,100.553333 25.2256881,102.7 C22.1431193,105.766667 17.1082569,105.766667 13.9743119,102.7 C10.8917431,99.6333333 10.8917431,94.6244444 13.9743119,91.5066667 C16.1321101,89.36 19.2146789,88.6955556 21.9376147,89.5644444 L28.1541284,83.38 L21.5779817,76.8377778 C21.2183486,76.48 21.2183486,75.8666667 21.5779817,75.5088889 L25.4825688,71.6244444 C25.8422018,71.2666667 26.4587156,71.2666667 26.8183486,71.6244444 Z" id="Shape" fill="url(#linearGradient-1)"></path>
            <g id="Group" transform="translate(30.825688, 63.088889)">
                <polygon id="Shape" fill="url(#linearGradient-2)" points="8.11743119 16.9177778 14.4366972 23.2555556 24.9174312 14.7711111 16.6972477 8.07555556"></polygon>
                <polygon id="Shape" fill="url(#linearGradient-3)" points="0.102752294 8.99555556 6.4733945 15.2822222 15.1559633 6.95111111 7.1412844 0.357777778"></polygon>
            </g>
            <polygon id="Shape" fill="url(#linearGradient-4)" points="75.5743119 17.2933333 60.8293578 35.3866667 79.6844037 58.5911111 100.337615 41.9288889 105.577982 12.08"></polygon>
            <path d="M90.3706422,71.6244444 L71.9779817,89.9222222 C71.6183486,90.28 71.6183486,90.8933333 71.9779817,91.2511111 L75.8825688,95.1355556 C76.2422018,95.4933333 76.8587156,95.4933333 77.2183486,95.1355556 L83.7944954,88.5933333 L90.0110092,94.7777778 C89.1889908,97.4866667 89.8055046,100.553333 91.9633028,102.7 C95.0458716,105.766667 100.080734,105.766667 103.214679,102.7 C106.297248,99.6333333 106.297248,94.6244444 103.214679,91.5066667 C101.056881,89.36 97.9743119,88.6955556 95.2513761,89.5644444 L89.0348624,83.38 L95.6110092,76.8377778 C95.9706422,76.48 95.9706422,75.8666667 95.6110092,75.5088889 L91.706422,71.6244444 C91.346789,71.2666667 90.7302752,71.2666667 90.3706422,71.6244444 Z" id="Shape" fill="url(#linearGradient-5)"></path>
            <polygon id="Shape" fill="url(#linearGradient-6)" points="11.6110092 12.08 16.8513761 41.9288889 71.9266055 86.3444444 78.2458716 80.0066667 32.2642202 32.6266667 79.8899083 78.3711111 86.2605505 72.0844444 41.5633028 17.2933333"></polygon>
            <g id="Group">
                <ellipse id="Oval" fill="#00C2A9" cx="100.440367" cy="5.53777778" rx="2.77431193" ry="2.76"></ellipse>
                <ellipse id="Oval" fill="#00C2A9" cx="8.11743119" cy="79.2911111" rx="2.10642202" ry="2.09555556"></ellipse>
                <ellipse id="Oval" fill="#FEC632" cx="20.3963303" cy="63.8044444" rx="1.5412844" ry="1.53333333"></ellipse>
                <ellipse id="Oval" fill="#00C2A9" cx="60.7779817" cy="96.3622222" rx="2.10642202" ry="2.09555556"></ellipse>
                <ellipse id="Oval" fill="#FEC632" cx="32.106422" cy="3.09555556" rx="2.10642202" ry="2.09555556"></ellipse>
                <ellipse id="Oval" fill="#FEC632" cx="104.13945" cy="77.1955556" rx="2.10642202" ry="2.09555556"></ellipse>
                <ellipse id="Oval" fill="#FEC632" cx="79.5926606" cy="1.58444444" rx="1.59266055" ry="1.58444444"></ellipse>
                <path d="M105.680734,53.1733333 C105.834862,52.7644444 106.451376,52.7644444 106.554128,53.1733333 C106.913761,54.4 107.530275,56.0355556 108.095413,56.5977778 C108.66055,57.16 110.304587,57.7222222 111.537615,58.1311111 C111.948624,58.2844444 111.948624,58.8977778 111.537615,59 C110.304587,59.3577778 108.66055,59.9711111 108.095413,60.5333333 C107.530275,61.0955556 106.965138,62.7311111 106.554128,63.9577778 C106.4,64.3666667 105.783486,64.3666667 105.680734,63.9577778 C105.321101,62.7311111 104.704587,61.0955556 104.13945,60.5333333 C103.574312,59.9711111 101.930275,59.4088889 100.697248,59 C100.286239,58.8466667 100.286239,58.2333333 100.697248,58.1311111 C101.930275,57.7733333 103.574312,57.16 104.13945,56.5977778 C104.704587,56.0355556 105.269725,54.4 105.680734,53.1733333 Z" id="Shape" fill="#00C2A9"></path>
                <path d="M58.5706422,6.23 C58.6733945,5.92333333 59.0844037,5.92333333 59.187156,6.23 C59.4440367,7.04777778 59.8550459,8.17222222 60.2146789,8.53 C60.5743119,8.88777778 61.7045872,9.29666667 62.5266055,9.55222222 C62.8348624,9.65444444 62.8348624,10.0633333 62.5266055,10.1655556 C61.7045872,10.4211111 60.5743119,10.83 60.2146789,11.1877778 C59.8550459,11.5455556 59.4440367,12.67 59.187156,13.4877778 C59.0844037,13.7944444 58.6733945,13.7944444 58.5706422,13.4877778 C58.3137615,12.67 57.9027523,11.5455556 57.5431193,11.1877778 C57.1834862,10.83 56.053211,10.4211111 55.2311927,10.1655556 C54.9229358,10.0633333 54.9229358,9.65444444 55.2311927,9.55222222 C56.053211,9.29666667 57.1834862,8.88777778 57.5431193,8.53 C57.9027523,8.17222222 58.3137615,7.04777778 58.5706422,6.23 Z" id="Shape" fill="#00C2A9"></path>
                <path d="M3.80183486,35.5911111 C3.90458716,35.2844444 4.31559633,35.2844444 4.41834862,35.5911111 C4.67522936,36.46 5.08623853,37.5844444 5.49724771,37.9422222 C5.90825688,38.3511111 6.98715596,38.7088889 7.86055046,39.0155556 C8.16880734,39.1177778 8.16880734,39.5266667 7.86055046,39.6288889 C6.98715596,39.8844444 5.85688073,40.2933333 5.49724771,40.7022222 C5.08623853,41.1111111 4.7266055,42.1844444 4.41834862,43.0533333 C4.31559633,43.36 3.90458716,43.36 3.80183486,43.0533333 C3.54495413,42.1844444 3.13394495,41.06 2.72293578,40.7022222 C2.31192661,40.2933333 1.23302752,39.9355556 0.359633028,39.6288889 C0.0513761468,39.5266667 0.0513761468,39.1177778 0.359633028,39.0155556 C1.23302752,38.76 2.36330275,38.3511111 2.72293578,37.9422222 C3.13394495,37.5844444 3.54495413,36.46 3.80183486,35.5911111 Z" id="Shape" fill="#00C2A9"></path>
            </g>
        </g>
        <rect id="Rectangle-57" x="0" y="0" width="120" height="120"></rect>
    </g>
</svg>