<?xml version="1.0" encoding="UTF-8"?>
<svg width="54px" height="38px" viewBox="0 0 54 38" version="1.1" xmlns="http://www.w3.org/2000/svg" xmlns:xlink="http://www.w3.org/1999/xlink">
    <!-- Generator: sketchtool 50.2 (55047) - http://www.bohemiancoding.com/sketch -->
    <title>C3738502-FF03-4819-904C-374477B6F992</title>
    <desc>Created with sketchtool.</desc>
    <defs></defs>
    <g id="Page-1" stroke="none" stroke-width="1" fill="none" fill-rule="evenodd">
        <g id="Assests_NEW" transform="translate(-50.000000, -333.000000)" fill="#FFFFFF" fill-rule="nonzero">
            <path d="M73.4167177,338.065319 C76.3091367,338.494625 78.5283019,340.988155 78.5283019,344 L78.5283019,351 L80.5888823,351 C80.846263,348.19675 83.2466576,346 86.1698113,346 L98.3962264,346 C101.491105,346 104,348.462434 104,351.5 L104,352.5 C104,355.537566 101.491105,358 98.3962264,358 L86.1698113,358 C83.2466576,358 80.846263,355.80325 80.5888823,353 L78.5283019,353 L78.5283019,360 C78.5283019,363.011845 76.3091367,365.505375 73.4167177,365.934681 C73.1909317,368.76905 70.7760091,371 67.8301887,371 L55.6037736,371 C52.5088949,371 50,368.537566 50,365.5 L50,364.5 C50,361.462434 52.5088949,359 55.6037736,359 L67.8301887,359 C70.71167,359 73.0851908,361.134563 73.3988082,363.880485 C75.1743964,363.440408 76.490566,361.836172 76.490566,359.924528 L76.490566,344.075472 C76.490566,342.163828 75.1743964,340.559592 73.3988082,340.119515 C73.0851908,342.865437 70.71167,345 67.8301887,345 L55.6037736,345 C52.5088949,345 50,342.537566 50,339.5 L50,338.5 C50,335.462434 52.5088949,333 55.6037736,333 L67.8301887,333 C70.7760091,333 73.1909317,335.23095 73.4167177,338.065319 Z M56.3229745,337 C55.081713,337 54.0754717,337.746192 54.0754717,338.666667 L54.0754717,339.333333 C54.0754717,340.253808 55.081713,341 56.3229745,341 L67.1109878,341 C68.3522493,341 69.3584906,340.253808 69.3584906,339.333333 L69.3584906,338.666667 C69.3584906,337.746192 68.3522493,337 67.1109878,337 L56.3229745,337 Z M86.8890122,350 C85.6477507,350 84.6415094,350.746192 84.6415094,351.666667 L84.6415094,352.333333 C84.6415094,353.253808 85.6477507,354 86.8890122,354 L97.6770255,354 C98.918287,354 99.9245283,353.253808 99.9245283,352.333333 L99.9245283,351.666667 C99.9245283,350.746192 98.918287,350 97.6770255,350 L86.8890122,350 Z M56.3229745,363 C55.081713,363 54.0754717,363.746192 54.0754717,364.666667 L54.0754717,365.333333 C54.0754717,366.253808 55.081713,367 56.3229745,367 L67.1109878,367 C68.3522493,367 69.3584906,366.253808 69.3584906,365.333333 L69.3584906,364.666667 C69.3584906,363.746192 68.3522493,363 67.1109878,363 L56.3229745,363 Z" id="ICN_Brackets"></path>
        </g>
    </g>
</svg>