<?xml version="1.0" encoding="UTF-8"?>
<svg width="120px" height="120px" viewBox="0 0 120 120" version="1.1" xmlns="http://www.w3.org/2000/svg" xmlns:xlink="http://www.w3.org/1999/xlink">
    <!-- Generator: Sketch 50.2 (55047) - http://www.bohemiancoding.com/sketch -->
    <title>Artboard 3 Copy 2</title>
    <desc>Created with Sketch.</desc>
    <defs>
        <linearGradient x1="0.00848383026%" y1="49.9810453%" x2="100.005614%" y2="50.0205081%" id="linearGradient-1">
            <stop stop-color="#982A54" offset="0%"></stop>
            <stop stop-color="#9D2A54" offset="31.97%"></stop>
            <stop stop-color="#AD2A54" offset="71.82%"></stop>
            <stop stop-color="#BC2A54" offset="100%"></stop>
        </linearGradient>
        <linearGradient x1="0.00619543137%" y1="49.9716869%" x2="100.007631%" y2="50.0403322%" id="linearGradient-2">
            <stop stop-color="#982A54" offset="0%"></stop>
            <stop stop-color="#9D2A54" offset="31.97%"></stop>
            <stop stop-color="#AD2A54" offset="71.82%"></stop>
            <stop stop-color="#BC2A54" offset="100%"></stop>
        </linearGradient>
        <linearGradient x1="0.00284346135%" y1="49.9095182%" x2="100.005207%" y2="50.0867555%" id="linearGradient-3">
            <stop stop-color="#FFDE39" offset="0%"></stop>
            <stop stop-color="#FFD939" offset="26.26%"></stop>
            <stop stop-color="#FFC939" offset="59.06%"></stop>
            <stop stop-color="#FFB039" offset="95.21%"></stop>
            <stop stop-color="#FFAC39" offset="100%"></stop>
        </linearGradient>
        <linearGradient x1="0.0303561023%" y1="49.9904163%" x2="99.9915843%" y2="50.0133543%" id="linearGradient-4">
            <stop stop-color="#FFDE39" offset="0%"></stop>
            <stop stop-color="#FFD939" offset="26.26%"></stop>
            <stop stop-color="#FFC939" offset="59.06%"></stop>
            <stop stop-color="#FFB039" offset="95.21%"></stop>
            <stop stop-color="#FFAC39" offset="100%"></stop>
        </linearGradient>
    </defs>
    <g id="Artboard-3-Copy-2" stroke="none" stroke-width="1" fill="none" fill-rule="evenodd">
        <g id="earn-copy" transform="translate(7.000000, 5.000000)" fill-rule="nonzero">
            <g id="Group">
                <ellipse id="Oval" fill="#BC2A54" cx="100.793558" cy="35.1865058" rx="2.75751007" ry="2.76467361"></ellipse>
                <ellipse id="Oval" fill="#BC2A54" cx="2.0976773" cy="86.6489303" rx="2.0976773" ry="2.10312671"></ellipse>
                <ellipse id="Oval" fill="#FEC632" cx="14.3948591" cy="70.9890291" rx="1.54289254" ry="1.54690071"></ellipse>
                <ellipse id="Oval" fill="#BC2A54" cx="30.394983" cy="36.1640154" rx="2.0976773" ry="2.10312671"></ellipse>
                <ellipse id="Oval" fill="#FEC632" cx="22.25048" cy="2.83653319" rx="2.0976773" ry="2.10312671"></ellipse>
                <ellipse id="Oval" fill="#FEC632" cx="98.2428616" cy="84.5688426" rx="2.0976773" ry="2.10312671"></ellipse>
                <ellipse id="Oval" fill="#FEC632" cx="84.5734902" cy="10.9857378" rx="1.59541654" ry="1.59956116"></ellipse>
                <path d="M99.8054506,60.3088316 C99.9400434,59.8710916 100.5572,59.8710916 100.691793,60.3088316 C101.075875,61.5595173 101.660204,63.1952825 102.218272,63.7547998 C102.776339,64.3143171 104.407866,64.9001646 105.655311,65.2885354 C106.091917,65.4234778 106.091917,66.0422381 105.655311,66.1771805 C104.407866,66.56226 102.776339,67.1481075 102.218272,67.7076248 C101.660204,68.2671421 101.075875,69.9029073 100.68851,71.153593 C100.553918,71.591333 99.9367606,71.591333 99.8021679,71.153593 C99.4180861,69.9029073 98.8337566,68.2671421 98.2756891,67.7076248 C97.7176216,67.1481075 96.0860948,66.56226 94.8386497,66.1738892 C94.402044,66.0389468 94.402044,65.4201865 94.8386497,65.2852441 C96.0860948,64.9001646 97.7176216,64.3143171 98.2756891,63.7547998 C98.8337566,63.1952825 99.4180861,61.5628086 99.8054506,60.3088316 Z" id="Shape" fill="#BC2A54"></path>
                <path d="M67.5576804,1.21969281 C67.6495974,0.926769062 68.0632239,0.926769062 68.1518582,1.21969281 C68.4111954,2.05896873 68.8018427,3.15825562 69.1760762,3.53675261 C69.5503097,3.91195831 70.6467482,4.30691168 71.4838495,4.56692265 C71.7760142,4.65907844 71.7760142,5.07377948 71.4838495,5.16264399 C70.6467482,5.42265496 69.5503097,5.81431706 69.1727934,6.18952276 C68.7985599,6.56472847 68.4046299,7.66401536 68.1452927,8.50329128 C68.0533757,8.79621503 67.6397491,8.79621503 67.5511149,8.50329128 C67.2917776,7.66401536 66.9011304,6.56472847 66.5268969,6.18623149 C66.1526634,5.81102578 65.0562248,5.41607241 64.2191236,5.15606144 C63.9269588,5.06390565 63.9269588,4.64920461 64.2191236,4.5603401 C65.0562248,4.30032913 66.1526634,3.90866703 66.5301796,3.53346133 C66.9076959,3.15825562 67.2983431,2.06226001 67.5576804,1.21969281 Z" id="Shape" fill="#BC2A54"></path>
                <path d="M7.08089192,36.3187054 C7.17609167,36.0159078 7.60284918,36.0159078 7.69476618,36.3187054 C7.96066894,37.1876029 8.3644472,38.3198025 8.75181171,38.7081733 C9.13917622,39.0965442 10.2684422,39.5013714 11.1350883,39.7712562 C11.4371013,39.8667032 11.4371013,40.2945694 11.1350883,40.3867252 C10.2684422,40.6533187 9.13917622,41.0581459 8.75181171,41.4465167 C8.3644472,41.8348875 7.96066894,42.9670872 7.69148343,43.8359846 C7.59628368,44.1387822 7.16952617,44.1387822 7.07760917,43.8359846 C6.81170641,42.9670872 6.40792815,41.8348875 6.02056364,41.4465167 C5.63319913,41.0581459 4.50393311,40.6533187 3.63728709,40.3834339 C3.33527408,40.2879868 3.33527408,39.8601207 3.63728709,39.7679649 C4.50393311,39.5013714 5.63319913,39.0965442 6.02056364,38.7081733 C6.40792815,38.3198025 6.81170641,37.1843116 7.08089192,36.3187054 Z" id="Shape" fill="#BC2A54"></path>
            </g>
            <g id="Group" transform="translate(20.746980, 5.917170)">
                <path d="M42.3048002,103.063083 L23.4946423,103.0565 C8.01975844,103.049918 -3.20724683,88.2918267 0.873211521,73.3263851 L18.8134407,34.012068 L47.0450914,34.0252331 L64.952493,73.3560066 C69.0231031,88.3214482 57.7796841,103.069665 42.3048002,103.063083 Z" id="Shape" fill="url(#linearGradient-1)"></path>
                <path d="M64.952493,73.3527153 L47.0450914,34.0219419 C47.0450914,34.0219419 58.8498606,70.9500823 59.1748529,78.3390016 C59.4899969,85.4580362 55.7640756,93.5874931 50.8169712,98.544158 C49.1460514,100.219419 47.2092289,101.680746 45.1115516,102.898519 C59.1059151,101.25288 68.7703314,87.3998903 64.952493,73.3527153 Z" id="Shape" fill="#000000" opacity="0.25"></path>
                <path d="M40.8735212,10.0449808 L36.7569526,2.32035107 C35.1287086,-0.737246297 30.7593682,-0.737246297 29.1278414,2.31705979 L25.0047073,10.0383982 C24.1150821,11.7004937 22.1158873,12.4179923 20.3760297,11.6972024 L15.6291731,9.72572682 C11.65048,8.07350521 7.97051719,12.6319254 10.4096005,16.189797 L19.243481,28.1568843 L46.6117683,28.1667581 L55.4554971,16.2062534 C57.9011459,12.6516731 54.2244658,8.08667032 50.2424899,9.73560066 L45.4956333,11.7004937 C43.7590585,12.4278662 41.7598637,11.7103675 40.8735212,10.0449808 Z" id="Shape" fill="url(#linearGradient-2)"></path>
                <path d="M52.803035,9.4887548 C51.3093837,13.7048821 48.8473212,17.6774547 45.9617838,20.5639057 C42.26869,24.2633022 37.2986064,26.9358201 32.0954475,28.1667581 L46.6117683,28.1733406 L55.4554971,16.212836 C57.3594921,13.4514536 55.5638278,10.0844761 52.803035,9.4887548 Z" id="Shape" fill="#000000" opacity="0.25"></path>
                <path d="M46.1554661,35.2462973 L19.6997832,35.2364235 C17.9238154,35.2364235 16.4728399,33.7783873 16.4728399,31.9978058 L16.4728399,30.7866155 C16.4728399,29.006034 17.9270982,27.5512891 19.703066,27.5512891 L46.1587488,27.5611629 C47.9347166,27.5611629 49.3856922,29.0191991 49.3856922,30.7997806 L49.3856922,32.0109709 C49.3856922,33.7915524 47.9314339,35.2495886 46.1554661,35.2462973 Z" id="Shape" fill="url(#linearGradient-3)"></path>
            </g>
            <path d="M49.0672654,80.1289084 C49.0672654,83.4432255 50.5740477,85.1020296 53.5941778,85.1020296 C54.995912,85.1020296 56.1218953,84.799232 56.9754103,84.1903456 C57.8289254,83.5814591 58.2556829,82.6862315 58.2556829,81.4980801 C58.2556829,79.993966 57.2807061,78.8123971 55.3307526,77.9599561 C54.3196655,77.5123423 53.3446888,77.1338453 52.4058222,76.8310477 C49.8419944,76.018102 47.7935584,75.0570488 46.2637968,73.9413055 C45.3446268,73.3027976 44.6158563,72.4273176 44.0774853,71.3148656 C43.5391143,70.1991223 43.2699288,68.9418541 43.2699288,67.5364783 C43.2699288,65.24904 43.870672,63.3598464 45.0688758,61.8688974 C46.2670796,60.3779484 47.9576959,59.3609435 50.1341592,58.8211739 L50.1341592,55.1579813 L52.409105,55.1579813 L52.409105,58.3801426 C52.6388975,58.3801426 52.855559,58.3669775 53.0590895,58.337356 L53.774729,58.337356 L54.4476928,58.337356 C54.6216785,58.3669775 54.8087953,58.3801426 55.0123258,58.3801426 L55.0123258,55.1579813 L57.2872716,55.1579813 L57.2872716,58.8639605 C59.4867142,59.5189248 61.2167234,60.7268239 62.483865,62.4777839 C63.7510065,64.2320351 64.3911428,66.3812397 64.4042738,68.928689 L57.9536699,68.9253977 C57.9536699,65.7855184 56.5617838,64.2155787 53.774729,64.2122874 C52.487891,64.2122874 51.4406937,64.5085025 50.6331372,65.1009325 C49.8222979,65.6933626 49.4185197,66.5392211 49.4185197,67.6417992 C49.4185197,69.5375754 51.1944875,71.0285244 54.746423,72.1146462 C55.6097863,72.3746572 56.2138123,72.5655513 56.5617838,72.680746 C56.9064726,72.7959408 57.4579746,73 58.2130071,73.2896325 C58.9680396,73.5792649 59.5589347,73.852441 59.9856922,74.1058694 C60.4091669,74.3592979 60.8917312,74.6982995 61.4333849,75.1261657 C61.971756,75.5540318 62.444472,76.0213933 62.8482502,76.5282501 C63.8855993,77.8315963 64.400991,79.473944 64.400991,81.4552935 C64.400991,83.8250137 63.770703,85.7997806 62.510127,87.3828854 C61.2495509,88.9659901 59.5064107,90.0257817 57.2741406,90.56226 L57.2741406,93.9621503 L54.9991948,93.9621503 L54.9991948,90.9802523 L54.3492103,90.9802523 C54.1456798,91.0098738 53.9224528,91.0230389 53.6762465,91.0230389 C53.4300403,91.0230389 53.2068133,91.0065826 53.0032828,90.9802523 L52.395974,90.9802523 L52.395974,93.9621503 L50.1210282,93.9621503 L50.1210282,90.4766868 C47.8789099,89.8513439 46.1193558,88.6302798 44.8456488,86.8134942 C43.5719418,84.9967087 42.9285228,82.7685134 42.9153918,80.1256171 L49.0672654,80.1289084 Z" id="Shape" fill="url(#linearGradient-4)"></path>
        </g>
        <rect id="Rectangle-57" x="0" y="0" width="120" height="120"></rect>
    </g>
</svg>