<?xml version="1.0" encoding="UTF-8"?>
<svg width="48px" height="50px" viewBox="0 0 48 50" version="1.1" xmlns="http://www.w3.org/2000/svg" xmlns:xlink="http://www.w3.org/1999/xlink">
    <!-- Generator: sketchtool 50.2 (55047) - http://www.bohemiancoding.com/sketch -->
    <title>5CB9DFA1-E766-4C8E-A4F0-4EA9AD95CAE9</title>
    <desc>Created with sketchtool.</desc>
    <defs></defs>
    <g id="Page-1" stroke="none" stroke-width="1" fill="none" fill-rule="evenodd">
        <g id="Assests_NEW" transform="translate(-128.000000, -327.000000)" fill="#FFFFFF" fill-rule="nonzero">
            <g id="ICN_Calendar" transform="translate(128.000000, 327.000000)">
                <path d="M30.3436328,29.0576157 C37.0487395,27.8286853 36.8718811,15.8550414 36.8718811,15.8550414 L31.812799,15.8381857 L30.4553329,15.8335887 L24.0201681,15.8136684 L24,15.8136684 L23.9798319,15.8136684 L17.5446671,15.7937481 L16.187201,15.7891511 L11.1296703,15.7722954 C11.1296703,15.7722954 10.873691,27.7459393 17.5694893,29.0162427 C18.0628313,30.2742875 18.7268261,31.1691695 19.6142211,31.39289 C19.4327085,31.5262029 19.3117001,31.7361324 19.3101487,31.9767086 C19.3085973,32.3812443 19.6390433,32.7091633 20.0486102,32.7106957 L20.4488688,32.712228 C20.4364577,32.7643273 20.4287007,32.8194913 20.4287007,32.8746552 C20.4271493,33.2776586 20.7575953,33.60711 21.1656109,33.60711 L22.049903,33.6101747 C22.0483516,34.1204413 22.4532644,34.5602207 23.0443439,34.7885382 C22.4858436,36.877107 21.1004525,39.095924 20.5946994,39.8605578 L17.2886878,39.8498314 C16.6091791,39.8482991 16.0553329,40.3907447 16.0522301,41.0649709 C16.0506787,41.7376647 16.5998707,42.2847073 17.2809308,42.2862397 L23.9131222,42.3076923 L30.5453135,42.329145 C31.2248222,42.3306773 31.7786684,41.7882317 31.7817712,41.1155378 C31.7833226,40.442844 31.2341306,39.8958014 30.5530705,39.8927367 L27.2470588,39.8820104 C26.7475113,39.114312 25.3760827,36.886301 24.8315449,34.7946675 C25.4241758,34.570947 25.8321913,34.1342323 25.8337427,33.6224333 L26.7180349,33.625498 C27.1260504,33.6270303 27.4580478,33.3006436 27.4595992,32.8976402 C27.4595992,32.8424762 27.4518423,32.7873123 27.4409825,32.735213 L27.8412411,32.7367453 C28.250808,32.7382777 28.5828054,32.4118909 28.5843568,32.0073552 C28.5843568,31.766779 28.4664512,31.5553172 28.2849386,31.420472 C29.1723335,31.2044131 29.8425339,30.3141281 30.3436328,29.0576157 Z M31.8298643,17.3000306 L35.3468649,17.310757 C35.1746606,19.940239 34.4594699,24.2951272 32.3340659,26.415875 C31.8888171,26.8602513 31.4016807,27.1866381 30.8680026,27.3996322 C31.7026503,24.0806007 31.8267615,19.584738 31.8298643,17.3000306 Z M15.5961215,26.3637757 C13.48468,24.2292369 12.7974144,19.8697518 12.6422754,17.2387374 L16.159276,17.2494637 C16.1468649,19.534171 16.2414997,24.0300337 17.0575307,27.3551946 C16.5238526,27.1406681 16.0382676,26.8112167 15.5961215,26.3637757 Z" id="Shape"></path>
                <g id="Group" transform="translate(8.330963, 0.000000)">
                    <path d="M27.9343245,1.67483911 L27.9343245,2.76739197 L27.9343245,4.21544591 L27.9343245,5.66349985 L27.9343245,6.50934723 C27.9343245,7.43487588 28.6929541,8.18418633 29.6299935,8.18418633 C30.5654816,8.18418633 31.3256626,7.43487588 31.3256626,6.50934723 L31.3256626,5.66349985 L31.3256626,4.21544591 L31.3256626,2.76739197 L31.3256626,1.67483911 C31.3256626,0.749310451 30.567033,0 29.6299935,0 C28.6929541,0.00153233221 27.9343245,0.750842783 27.9343245,1.67483911 Z" id="Shape"></path>
                    <path d="M18.6259858,1.67483911 L18.6259858,2.76739197 L18.6259858,4.21544591 L18.6259858,5.66349985 L18.6259858,6.50934723 C18.6259858,7.43487588 19.3846154,8.18418633 20.3216548,8.18418633 C21.2571429,8.18418633 22.0173239,7.43487588 22.0173239,6.50934723 L22.0173239,5.66349985 L22.0173239,4.21544591 L22.0173239,2.76739197 L22.0173239,1.67483911 C22.0173239,0.749310451 21.2586942,0 20.3216548,0 C19.3846154,0.00153233221 18.6259858,0.750842783 18.6259858,1.67483911 Z" id="Shape"></path>
                    <path d="M9.31919845,1.67483911 L9.31919845,2.76739197 L9.31919845,4.21544591 L9.31919845,5.66349985 L9.31919845,6.50934723 C9.31919845,7.43487588 10.0778281,8.18418633 11.0148675,8.18418633 C11.9503555,8.18418633 12.7105365,7.43487588 12.7105365,6.50934723 L12.7105365,5.66349985 L12.7105365,4.21544591 L12.7105365,2.76739197 L12.7105365,1.67483911 C12.7105365,0.749310451 11.9519069,0 11.0148675,0 C10.0778281,0.00153233221 9.31919845,0.750842783 9.31919845,1.67483911 Z" id="Shape"></path>
                    <path d="M0.0124111183,1.67483911 L0.0124111183,2.76739197 L0.0124111183,4.21544591 L0.0124111183,5.66349985 L0.0124111183,6.50934723 C0.0124111183,7.43487588 0.771040724,8.18418633 1.70808016,8.18418633 C2.6435682,8.18418633 3.40374919,7.43487588 3.40374919,6.50934723 L3.40374919,5.66349985 L3.40374919,4.21544591 L3.40374919,2.76739197 L3.40374919,1.67483911 C3.40374919,0.749310451 2.64511959,0 1.70808016,0 C0.771040724,0.00153233221 0.0124111183,0.750842783 0.0124111183,1.67483911 Z" id="Shape"></path>
                </g>
                <path d="M44.6458953,49.9892737 L3.35255333,49.9892737 C1.50795087,49.9892737 0.00620555915,48.5059761 0.00620555915,46.6840331 L0.00620555915,5.8228624 C0.00620555915,4.0009194 1.50795087,2.51762182 3.35255333,2.51762182 L44.6458953,2.51762182 C46.4904977,2.51762182 47.9922431,3.99938707 47.9922431,5.8228624 L47.9922431,46.6840331 C47.9922431,48.5059761 46.4904977,49.9892737 44.6458953,49.9892737 Z M3.35255333,5.66656451 C3.27032967,5.66656451 3.19431157,5.74011646 3.19431157,5.8228624 L3.19431157,46.6840331 C3.19431157,46.7652467 3.26877828,46.840331 3.35255333,46.840331 L44.6458953,46.840331 C44.7281189,46.840331 44.804137,46.766779 44.804137,46.6840331 L44.804137,5.8228624 C44.804137,5.74164879 44.7296703,5.66656451 44.6458953,5.66656451 L3.35255333,5.66656451 Z" id="Shape"></path>
                <rect id="Rectangle-path" x="2.62340013" y="4.84983144" width="43.4156432" height="5"></rect>
            </g>
        </g>
    </g>
</svg>