<?xml version="1.0" encoding="UTF-8"?>
<svg width="32px" height="50px" viewBox="0 0 32 50" version="1.1" xmlns="http://www.w3.org/2000/svg" xmlns:xlink="http://www.w3.org/1999/xlink">
    <!-- Generator: sketchtool 50.2 (55047) - http://www.bohemiancoding.com/sketch -->
    <title>7C106FF1-0F34-449D-B53C-779447C1F80E</title>
    <desc>Created with sketchtool.</desc>
    <defs></defs>
    <g id="Page-1" stroke="none" stroke-width="1" fill="none" fill-rule="evenodd">
        <g id="Assests_NEW" transform="translate(-211.000000, -327.000000)" fill="#FFFFFF" fill-rule="nonzero">
            <g id="ICN_Money" transform="translate(211.000000, 327.000000)">
                <path d="M19.5568092,4.82525366 L17.5203173,1.09921082 C16.7150286,-0.374859076 14.5882768,-0.356538895 13.809784,1.13162345 L11.8395769,4.89289741 C11.4150727,5.70321308 10.4447774,6.05975197 9.59576906,5.71871477 L7.27862494,4.78579481 C5.33521375,4.00225479 3.56527104,6.23027057 4.76967827,7.94391206 L9.12049361,13.7063134 L22.4338475,13.5879369 L26.68171,7.7494363 C27.8550903,6.01465614 26.0456589,3.81905299 24.1163508,4.63641488 L21.8161305,5.61161218 C20.9727633,5.96815107 19.9954165,5.62852311 19.5568092,4.82525366 Z" id="Shape"></path>
                <path d="M31.5557514,35.4072717 L22.6679595,16.4219278 L8.93574262,16.5445321 L0.387836051,35.6863021 C-1.53018951,42.9594138 3.99964742,50.063416 11.5250771,49.9957723 L20.6751873,49.9140361 C28.200617,49.8463923 33.6021155,42.6451522 31.5557514,35.4072717 Z M16.4005289,32.0856821 C16.8208021,32.2125141 17.1155575,32.304115 17.2833848,32.3590755 C17.451212,32.4154453 17.7191714,32.5140924 18.0872631,32.6536077 C18.4553548,32.7945321 18.7416483,32.9255919 18.9489643,33.0481962 C19.15487,33.1708005 19.3903922,33.3356821 19.6527104,33.542841 C19.9150286,33.75 20.1449097,33.9768884 20.3409431,34.222097 C20.8444249,34.8534386 21.0968709,35.6496618 21.0968709,36.6121759 C21.0968709,37.7607103 20.7894227,38.7189966 20.1773468,39.4856257 C19.5638607,40.253664 18.7162627,40.7666291 17.6303217,41.0273393 L17.6303217,42.6747463 L16.5232261,42.6747463 L16.5232261,41.2288613 L16.207316,41.2288613 C16.1085941,41.2429538 16,41.25 15.8801234,41.25 C15.7602468,41.25 15.6516527,41.2429538 15.5529308,41.2288613 L15.2581754,41.2288613 L15.2581754,42.6747463 L14.1510798,42.6747463 L14.1510798,40.985062 C13.0594976,40.6820744 12.204848,40.0901917 11.5857206,39.2094138 C10.9665932,38.3286359 10.6535037,37.2477452 10.6464522,35.9667418 L13.6363156,35.9681511 C13.6349052,37.57469 14.3696783,38.3779594 15.837814,38.3793687 C16.5189952,38.3793687 17.0676069,38.2328072 17.4822389,37.9382751 C17.8968709,37.643743 18.1041869,37.2082864 18.1041869,36.6333145 C18.1041869,35.9033258 17.6303217,35.3311725 16.6825914,34.9168546 C16.1903922,34.6998309 15.7165271,34.5166291 15.2595857,34.3686584 C14.0114588,33.9754791 13.0157779,33.5090192 12.272543,32.9678692 C11.8254738,32.6592446 11.4714852,32.235062 11.209167,31.6939121 C10.9468488,31.1541714 10.8156897,30.5425592 10.8171,29.861894 C10.8171,28.7528185 11.1090348,27.8368095 11.6929044,27.113867 C12.2767739,26.3909245 13.097576,25.8976888 14.156721,25.6369786 L14.1581313,23.8613303 L15.265227,23.8613303 L15.2638167,25.4241826 C15.3766417,25.4241826 15.4824152,25.4171364 15.5797268,25.403044 L15.928074,25.403044 L16.2552666,25.403044 C16.3398854,25.4171364 16.4315558,25.4241826 16.5288673,25.4241826 L16.5288673,23.8613303 L17.635963,23.8613303 L17.6345527,25.6581172 C18.7035699,25.9766065 19.546937,26.5600338 20.1618334,27.4112176 C20.7781401,28.2624014 21.0898193,29.3038331 21.0968709,30.5383315 L17.9589246,30.5369222 C17.9589246,29.014938 17.2819744,28.2525366 15.9252534,28.2525366 C15.3004848,28.2525366 14.7899515,28.3962796 14.3964742,28.6837655 C14.0029969,28.9712514 13.8055531,29.3813416 13.8055531,29.9154453 C13.809784,30.8356821 14.6728955,31.5600338 16.4005289,32.0856821 Z" id="Shape"></path>
            </g>
        </g>
    </g>
</svg>