<?xml version="1.0" encoding="UTF-8"?>
<svg width="120px" height="120px" viewBox="0 0 120 120" version="1.1" xmlns="http://www.w3.org/2000/svg" xmlns:xlink="http://www.w3.org/1999/xlink">
    <!-- Generator: Sketch 50.2 (55047) - http://www.bohemiancoding.com/sketch -->
    <title>Artboard 3 Copy</title>
    <desc>Created with Sketch.</desc>
    <defs>
        <linearGradient x1="-4.04202539%" y1="49.7633037%" x2="83.6144776%" y2="50.0337908%" id="linearGradient-1">
            <stop stop-color="#FFDE39" offset="0%"></stop>
            <stop stop-color="#FFD939" offset="19.33%"></stop>
            <stop stop-color="#FFC939" offset="43.47%"></stop>
            <stop stop-color="#FFB039" offset="70.05%"></stop>
            <stop stop-color="#FF9B39" offset="100%"></stop>
        </linearGradient>
        <linearGradient x1="-0.190853659%" y1="50.0356618%" x2="99.5713415%" y2="50.0356618%" id="linearGradient-2">
            <stop stop-color="#982A54" offset="0%"></stop>
            <stop stop-color="#9D2A54" offset="31.97%"></stop>
            <stop stop-color="#AD2A54" offset="71.82%"></stop>
            <stop stop-color="#BC2A54" offset="100%"></stop>
        </linearGradient>
        <linearGradient x1="0.0311358248%" y1="49.9050387%" x2="99.9634639%" y2="49.9050387%" id="linearGradient-3">
            <stop stop-color="#982A54" offset="0%"></stop>
            <stop stop-color="#9D2A54" offset="31.97%"></stop>
            <stop stop-color="#AD2A54" offset="71.82%"></stop>
            <stop stop-color="#BC2A54" offset="100%"></stop>
        </linearGradient>
        <linearGradient x1="-0.0451388889%" y1="50.0316364%" x2="100.165278%" y2="50.0316364%" id="linearGradient-4">
            <stop stop-color="#FFDE39" offset="0%"></stop>
            <stop stop-color="#FFD939" offset="19.33%"></stop>
            <stop stop-color="#FFC939" offset="43.47%"></stop>
            <stop stop-color="#FFB039" offset="70.05%"></stop>
            <stop stop-color="#FF9B39" offset="87.68%"></stop>
        </linearGradient>
    </defs>
    <g id="Artboard-3-Copy" stroke="none" stroke-width="1" fill="none" fill-rule="evenodd">
        <g id="win-copy" transform="translate(4.000000, 5.000000)" fill-rule="nonzero">
            <path d="M80.9174312,61.4571429 C103.933945,57.1885714 103.317431,15.5314286 103.317431,15.5314286 L85.9522936,15.48 L81.2770642,15.48 L59.1853211,15.4285714 L59.133945,15.4285714 L59.0825688,15.4285714 L36.9908257,15.3771429 L32.3155963,15.3771429 L14.9504587,15.3257143 C14.9504587,15.3257143 14.0770642,56.9828571 37.0422018,61.4057143 C38.7376147,65.7771429 40.9981651,68.9142857 44.0807339,69.6857143 C43.4642202,70.1485714 43.053211,70.8685714 43.053211,71.7428571 C43.053211,73.1314286 44.1834862,74.3142857 45.5706422,74.3142857 L46.9577982,74.3142857 C46.906422,74.52 46.906422,74.6742857 46.906422,74.88 C46.906422,76.2685714 48.0366972,77.4 49.4238532,77.4514286 L52.4550459,77.4514286 C52.4550459,79.2514286 53.8422018,80.7428571 55.8458716,81.5657143 C53.9449541,88.8171429 49.1669725,96.5314286 47.4201835,99.2057143 L36.066055,99.1542857 C33.7541284,99.1542857 31.853211,101.057143 31.8018349,103.371429 C31.8018349,105.685714 33.7027523,107.588571 36.0146789,107.64 L58.7743119,107.691429 L81.533945,107.742857 C83.8458716,107.742857 85.746789,105.84 85.7981651,103.525714 C85.7981651,101.16 83.8972477,99.2571429 81.5853211,99.2571429 L70.2311927,99.2057143 C68.5357798,96.5314286 63.8091743,88.7657143 61.959633,81.5142857 C64.0146789,80.7428571 65.4018349,79.2 65.4018349,77.4514286 L68.4330275,77.4514286 C69.8201835,77.4514286 70.9504587,76.32 71.0018349,74.9314286 C71.0018349,74.7257143 71.0018349,74.5714286 70.9504587,74.3657143 L72.3376147,74.3657143 C73.7247706,74.3657143 74.906422,73.2342857 74.906422,71.8457143 C74.906422,71.0228571 74.4954128,70.2514286 73.8788991,69.7885714 C76.9100917,68.9142857 79.1706422,65.8285714 80.9174312,61.4571429 Z M86.0036697,20.5714286 L98.0770642,20.6228571 C97.4605505,29.7771429 95.0458716,44.8971429 87.7504587,52.3028571 C86.2091743,53.8457143 84.5651376,54.9771429 82.7155963,55.6971429 C85.5926606,44.1257143 86.0036697,28.4914286 86.0036697,20.5714286 Z M30.3119266,52.0971429 C23.0678899,44.6914286 20.7045872,29.52 20.1908257,20.3657143 L32.2642202,20.4171429 C32.212844,28.3371429 32.5211009,44.0228571 35.346789,55.5428571 C33.4972477,54.7714286 31.8018349,53.64 30.3119266,52.0971429 Z" id="Shape" fill="url(#linearGradient-1)"></path>
            <g id="Group">
                <ellipse id="Oval" fill="#FEC632" cx="106.656881" cy="39.1885714" rx="2.77431193" ry="2.77714286"></ellipse>
                <ellipse id="Oval" fill="#BC2A54" cx="8.11743119" cy="90.5142857" rx="2.10642202" ry="2.10857143"></ellipse>
                <ellipse id="Oval" fill="#FEC632" cx="20.3963303" cy="74.88" rx="1.5412844" ry="1.54285714"></ellipse>
                <ellipse id="Oval" fill="#FEC632" cx="79.0165138" cy="87.48" rx="2.10642202" ry="2.10857143"></ellipse>
                <ellipse id="Oval" fill="#FEC632" cx="28.2055046" cy="6.94285714" rx="2.10642202" ry="2.10857143"></ellipse>
                <ellipse id="Oval" fill="#BC2A54" cx="104.13945" cy="88.4057143" rx="2.10642202" ry="2.10857143"></ellipse>
                <ellipse id="Oval" fill="#BC2A54" cx="84.2568807" cy="2.72571429" rx="1.59266055" ry="1.59428571"></ellipse>
                <path d="M105.680734,64.2342857 C105.834862,63.8228571 106.451376,63.8228571 106.554128,64.2342857 C106.913761,65.4685714 107.530275,67.1142857 108.095413,67.68 C108.66055,68.2457143 110.304587,68.8114286 111.537615,69.2228571 C111.948624,69.3771429 111.948624,69.9942857 111.537615,70.0971429 C110.304587,70.4571429 108.66055,71.0742857 108.095413,71.64 C107.530275,72.2057143 106.965138,73.8514286 106.554128,75.0857143 C106.4,75.4971429 105.783486,75.4971429 105.680734,75.0857143 C105.321101,73.8514286 104.704587,72.2057143 104.13945,71.64 C103.574312,71.0742857 101.930275,70.5085714 100.697248,70.0971429 C100.286239,69.9428571 100.286239,69.3257143 100.697248,69.2228571 C101.930275,68.8628571 103.574312,68.2457143 104.13945,67.68 C104.704587,67.1142857 105.269725,65.4685714 105.680734,64.2342857 Z" id="Shape" fill="#FEC632"></path>
                <path d="M62.8844037,0.617142857 C62.987156,0.308571429 63.3981651,0.308571429 63.5009174,0.617142857 C63.7577982,1.44 64.1688073,2.57142857 64.5284404,2.93142857 C64.8880734,3.29142857 66.0183486,3.70285714 66.840367,3.96 C67.1486239,4.06285714 67.1486239,4.47428571 66.840367,4.57714286 C66.0183486,4.83428571 64.8880734,5.24571429 64.5284404,5.60571429 C64.1688073,5.96571429 63.7577982,7.09714286 63.5009174,7.92 C63.3981651,8.22857143 62.987156,8.22857143 62.8844037,7.92 C62.6275229,7.09714286 62.2165138,5.96571429 61.8568807,5.60571429 C61.4972477,5.24571429 60.3669725,4.83428571 59.5449541,4.57714286 C59.2366972,4.47428571 59.2366972,4.06285714 59.5449541,3.96 C60.3669725,3.70285714 61.4972477,3.29142857 61.8568807,2.93142857 C62.2165138,2.52 62.6275229,1.44 62.8844037,0.617142857 Z" id="Shape" fill="#FEC632"></path>
                <path d="M3.80183486,46.4914286 C3.90458716,46.1828571 4.31559633,46.1828571 4.41834862,46.4914286 C4.67522936,47.3657143 5.08623853,48.4971429 5.49724771,48.8571429 C5.90825688,49.2685714 6.98715596,49.6285714 7.86055046,49.9371429 C8.16880734,50.04 8.16880734,50.4514286 7.86055046,50.5542857 C6.98715596,50.8114286 5.85688073,51.2228571 5.49724771,51.6342857 C5.08623853,52.0457143 4.7266055,53.1257143 4.41834862,54 C4.31559633,54.3085714 3.90458716,54.3085714 3.80183486,54 C3.54495413,53.1257143 3.13394495,51.9942857 2.72293578,51.6342857 C2.31192661,51.2742857 1.23302752,50.8628571 0.359633028,50.5542857 C0.0513761468,50.4514286 0.0513761468,50.04 0.359633028,49.9371429 C1.23302752,49.68 2.36330275,49.2685714 2.72293578,48.8571429 C3.08256881,48.4457143 3.54495413,47.3657143 3.80183486,46.4914286 Z" id="Shape" fill="#FEC632"></path>
            </g>
            <g id="Group" transform="translate(44.697248, 24.171429)">
                <path d="M23.2733945,27.36 C22.7082569,27.72 21.9889908,27.6685714 21.4752294,27.36 C21.3724771,27.9771429 20.9100917,28.4914286 20.293578,28.6971429 C19.6770642,28.9028571 19.0091743,28.7485714 18.546789,28.2857143 C18.2899083,28.8514286 17.7761468,29.3142857 17.1082569,29.3657143 C17.0568807,29.3657143 17.0055046,29.3657143 16.9027523,29.3657143 C16.3376147,29.3657143 15.7724771,29.0571429 15.4642202,28.5942857 C15.4642202,28.5942857 15.4642202,28.5942857 15.4642202,28.5942857 C15.1045872,29.1085714 14.4880734,29.4171429 13.8201835,29.3657143 C13.1522936,29.3142857 12.6385321,28.8514286 12.3816514,28.2857143 C11.9192661,28.6971429 11.2513761,28.9028571 10.6348624,28.6971429 C10.0183486,28.4914286 9.5559633,27.9257143 9.45321101,27.36 C8.93944954,27.6685714 8.22018349,27.72 7.65504587,27.36 C7.44954128,27.2057143 7.2440367,27.0514286 7.08990826,26.8457143 L7.08990826,40.7828571 L15.5155963,35.3314286 L23.9412844,40.7828571 L23.9412844,26.7942857 C23.7357798,27.0514286 23.5302752,27.2057143 23.2733945,27.36 Z" id="Shape" fill="url(#linearGradient-2)"></path>
                <path d="M30.0550459,15.48 C30.0550459,14.1428571 30.9284404,12.6514286 30.6201835,11.4171429 C30.2605505,10.1314286 28.7706422,9.30857143 28.1027523,8.17714286 C27.4348624,7.04571429 27.4862385,5.29714286 26.5614679,4.37142857 C25.6366972,3.44571429 23.9412844,3.49714286 22.759633,2.82857143 C21.6293578,2.16 20.8073394,0.668571429 19.5229358,0.308571429 C18.2899083,-4.5519144e-15 16.8,0.874285714 15.4642202,0.874285714 C14.1284404,0.874285714 12.6385321,-1.18793864e-14 11.4055046,0.308571429 C10.1211009,0.668571429 9.29908257,2.16 8.16880734,2.82857143 C7.03853211,3.49714286 5.29174312,3.44571429 4.36697248,4.37142857 C3.44220183,5.29714286 3.49357798,6.99428571 2.82568807,8.17714286 C2.15779817,9.30857143 0.667889908,10.1314286 0.308256881,11.4171429 C-1.92346139e-14,12.6514286 0.873394495,14.1428571 0.873394495,15.48 C0.873394495,16.8171429 -2.65343303e-14,18.3085714 0.308256881,19.5428571 C0.667889908,20.8285714 2.15779817,21.6514286 2.82568807,22.7828571 C3.49357798,23.9142857 3.44220183,25.6628571 4.36697248,26.5885714 C5.29174312,27.5142857 6.98715596,27.4628571 8.16880734,28.1314286 C9.29908257,28.8 10.1211009,30.2914286 11.4055046,30.6514286 C12.6385321,31.0114286 14.1284404,30.0857143 15.4642202,30.0857143 C16.8,30.0857143 18.2899083,30.96 19.5229358,30.6514286 C20.8073394,30.2914286 21.6293578,28.8 22.759633,28.1314286 C23.8899083,27.4628571 25.6366972,27.5142857 26.5614679,26.5885714 C27.4862385,25.6628571 27.4348624,23.9657143 28.1027523,22.7828571 C28.7706422,21.6514286 30.2605505,20.8285714 30.6201835,19.5428571 C30.9284404,18.2571429 30.0550459,16.8171429 30.0550459,15.48 Z" id="Shape" fill="url(#linearGradient-3)"></path>
                <polygon id="Shape" fill="url(#linearGradient-4)" points="22.759633 13.4742857 17.5706422 12.9085714 15.3614679 8.12571429 13.2036697 12.9085714 7.96330275 13.5771429 11.8165138 17.1257143 10.840367 22.2685714 15.412844 19.6457143 19.9853211 22.2171429 18.906422 17.0742857"></polygon>
            </g>
        </g>
        <rect id="Rectangle-57" x="0" y="0" width="120" height="120"></rect>
    </g>
</svg>