<?xml version="1.0" encoding="UTF-8"?>
<svg width="469px" height="483px" viewBox="0 0 469 483" version="1.1" xmlns="http://www.w3.org/2000/svg" xmlns:xlink="http://www.w3.org/1999/xlink">
    <!-- Generator: sketchtool 50.2 (55047) - http://www.bohemiancoding.com/sketch -->
    <title>0138A1B5-85FE-414B-99E1-4B5520FD2DAF</title>
    <desc>Created with sketchtool.</desc>
    <defs>
        <filter x="-28.7%" y="-39.1%" width="157.3%" height="198.1%" filterUnits="objectBoundingBox" id="filter-1">
            <feOffset dx="0" dy="21" in="SourceAlpha" result="shadowOffsetOuter1"></feOffset>
            <feGaussianBlur stdDeviation="31" in="shadowOffsetOuter1" result="shadowBlurOuter1"></feGaussianBlur>
            <feColorMatrix values="0 0 0 0 0   0 0 0 0 0   0 0 0 0 0  0 0 0 0.578549592 0" type="matrix" in="shadowBlurOuter1" result="shadowMatrixOuter1"></feColorMatrix>
            <feMerge>
                <feMergeNode in="shadowMatrixOuter1"></feMergeNode>
                <feMergeNode in="SourceGraphic"></feMergeNode>
            </feMerge>
        </filter>
        <polygon id="path-2" points="0.336017301 0.52876213 134.741689 0.52876213 134.741689 176.837557 0.336017301 176.837557"></polygon>
        <linearGradient x1="50%" y1="98.0842833%" x2="50%" y2="17.7077983%" id="linearGradient-4">
            <stop stop-color="#000000" stop-opacity="0" offset="0%"></stop>
            <stop stop-color="#070514" stop-opacity="0.879651373" offset="68.6303288%"></stop>
            <stop stop-color="#080617" offset="100%"></stop>
        </linearGradient>
        <linearGradient x1="50%" y1="100%" x2="50%" y2="3.061617e-15%" id="linearGradient-5">
            <stop stop-color="#883A70" offset="0%"></stop>
            <stop stop-color="#151225" offset="100%"></stop>
        </linearGradient>
        <linearGradient x1="0.0939790576%" y1="49.9517123%" x2="100%" y2="49.9517123%" id="linearGradient-6">
            <stop stop-color="#F4B57F" offset="0%"></stop>
            <stop stop-color="#AF6B4D" offset="100%"></stop>
        </linearGradient>
    </defs>
    <g id="Page-1" stroke="none" stroke-width="1" fill="none" fill-rule="evenodd">
        <g id="Assests_NEW" transform="translate(-564.000000, -517.000000)">
            <g id="IMG_ArtSafeMoney2" transform="translate(618.000000, 516.000000)">
                <g id="Group-46" transform="translate(0.000000, 0.834168)">
                    <g id="Group-41">
                        <g id="Group-40" transform="translate(0.000000, 195.000000)">
                            <rect id="Rectangle-54" fill="#151225" x="0" y="39.5058568" width="355.798271" height="51.9813905"></rect>
                            <g id="Group-39" filter="url(#filter-1)">
                                <g id="Group-45" transform="translate(180.500000, 105.004818) rotate(-180.000000) translate(-180.500000, -105.004818) translate(0.000000, 0.004818)">
                                    <polygon id="Fill-1" fill="#5DC799" points="189.868512 149.49968 257.866422 209.414804 360.810131 92.4146201 292.810972 32.5007456"></polygon>
                                    <g id="Group-49">
                                        <path d="M212.564545,156.066455 L250.047337,189.092213 C254.20196,184.372105 261.39323,183.913344 266.111212,188.07094 L340.868192,103.10399 C336.151458,98.9476449 335.694275,91.7499798 339.847648,87.0286215 L302.364856,54.0028639 C298.211482,58.7242222 291.018963,59.1804826 286.300981,55.0241373 L211.544001,139.991087 C216.260735,144.147432 216.719167,151.345097 212.564545,156.066455" id="Fill-2" fill="#8CE5BD"></path>
                                        <path d="M298.424335,96.2958341 C294.192266,92.5669986 293.7813,86.1106004 297.508719,81.8742533 C301.234889,77.6391561 307.686671,77.2278967 311.91874,80.9567322 C316.150809,84.6868178 316.561774,91.1432159 312.835605,95.3795631 C309.108186,99.6134102 302.656404,100.02467 298.424335,96.2958341" id="Fill-4" fill="#5DC799"></path>
                                        <path d="M240.493203,162.13722 C236.261134,158.408384 235.851418,151.951986 239.577588,147.715639 C243.303757,143.480542 249.756788,143.069282 253.988857,146.798118 C258.220927,150.528203 258.630643,156.984601 254.904473,161.220949 C251.178304,165.456046 244.726522,165.866055 240.493203,162.13722" id="Fill-6" fill="#5DC799"></path>
                                        <path d="M258.405549,140.14809 C247.74668,130.756625 246.713646,114.496252 256.098397,103.829757 C265.483147,93.1645123 281.731895,92.1307386 292.390763,101.522204 C303.048383,110.913669 304.081417,127.172792 294.696666,137.839287 C285.313165,148.507032 269.064417,149.539556 258.405549,140.14809" id="Fill-8" fill="#5DC799"></path>
                                        <path d="M264.387781,124.047971 C262.609013,122.480435 261.635937,120.710394 261.467303,118.740349 C261.29867,116.767804 261.687151,114.901511 262.630248,113.138971 L260.440515,111.210176 C260.007065,110.828918 259.686037,110.526411 259.477431,110.302655 C259.271324,110.0789 259.085203,109.782644 258.921566,109.416385 C258.759179,109.050127 258.745438,108.673868 258.882843,108.288859 C259.020248,107.9026 259.298805,107.46884 259.721013,106.990079 C260.141971,106.511318 260.536698,106.178811 260.900196,105.995057 C261.264944,105.808802 261.640933,105.786302 262.025667,105.922555 C262.411649,106.058808 262.722684,106.212562 262.958771,106.380065 C263.196106,106.548819 263.542117,106.833826 263.998051,107.235085 L266.119082,109.103878 C267.148369,108.348861 268.233867,107.806348 269.374328,107.475091 C270.516037,107.145083 271.399175,106.990079 272.024992,107.01508 L272.999317,107.083832 C274.036099,107.146333 274.725622,107.328837 275.067885,107.630094 C275.63749,108.132606 275.957269,109.103878 276.02722,110.542661 C276.059698,111.38018 275.864833,112.040195 275.443874,112.517706 C274.961708,113.066469 273.969895,113.387726 272.468435,113.483978 L272.146158,113.503979 C270.658438,113.447728 269.521726,113.865237 268.738518,114.754008 C267.253297,116.442796 267.20458,117.90033 268.596117,119.125358 C269.098269,119.567868 269.766556,119.590369 270.603476,119.192859 C271.439148,118.79535 272.367255,118.235337 273.386549,117.512821 C274.407092,116.790304 275.500085,116.134039 276.669276,115.542776 C277.835968,114.951512 279.14631,114.727757 280.599054,114.87276 C282.050549,115.016514 283.470816,115.702779 284.862352,116.929057 C286.206421,118.114085 287.047089,119.621619 287.376861,121.455411 C287.70913,123.285453 287.361871,125.106745 286.336331,126.918037 L288.251255,128.605575 C288.708438,129.006835 289.034463,129.314342 289.230577,129.529347 C289.426691,129.741851 289.612812,130.025608 289.785193,130.381866 C289.958822,130.736874 289.971314,131.113133 289.825165,131.510642 C289.677767,131.908151 289.394213,132.345661 288.972006,132.824422 C288.429881,133.441936 287.891504,133.786944 287.358124,133.865696 C286.824743,133.941948 286.390044,133.871946 286.054027,133.656941 C285.71676,133.441936 285.263324,133.083178 284.693719,132.579416 L282.778795,130.893128 C282.079279,131.41064 281.373518,131.821899 280.659013,132.126906 C279.948255,132.429413 279.42112,132.614417 279.081355,132.678169 L278.536733,132.74692 L278.311888,132.793171 C277.286348,132.900674 276.614314,132.814422 276.294535,132.533165 C275.929788,132.210658 275.606262,131.520642 275.322708,130.461868 C274.952964,129.041835 275.049148,128.011812 275.611258,127.373047 C275.972258,126.961788 276.566847,126.655531 277.393774,126.453026 C277.478715,126.446776 277.661089,126.423025 277.939646,126.384274 C278.215705,126.345523 278.460535,126.298022 278.672888,126.241771 C278.883992,126.18427 279.158802,126.043017 279.501065,125.816761 C279.842079,125.589256 280.193085,125.271749 280.554085,124.860489 C280.935072,124.427979 281.154919,123.891717 281.21113,123.251702 C281.267342,122.612938 281.06748,122.092926 280.610297,121.690417 C280.064425,121.209156 279.429864,121.065402 278.710362,121.261657 C277.99211,121.459161 277.278854,121.85417 276.574342,122.449184 C275.86858,123.042948 275.035407,123.645462 274.073573,124.255476 C273.11049,124.86549 272.168643,125.373001 271.246781,125.77676 C270.324919,126.17927 269.254411,126.258021 268.032757,126.013016 C266.811103,125.76801 265.595694,125.112995 264.387781,124.047971" id="Fill-10" fill="#8CE5BD"></path>
                                        <g id="Group-14" transform="translate(147.397924, 0.000000)">
                                            <mask id="mask-3" fill="white">
                                                <use xlink:href="#path-2"></use>
                                            </mask>
                                            <g id="Clip-13"></g>
                                            <polygon id="Fill-12" fill="#5DC799" mask="url(#mask-3)" points="0.336017301 148.746912 48.5988443 0.528512125 134.741689 28.6179065 86.4788616 176.837557"></polygon>
                                        </g>
                                        <path d="M170.143922,145.588965 L217.628538,161.07307 C219.575939,155.091683 225.998991,151.822858 231.976102,153.771653 L267.025579,46.1341834 C261.048469,44.1853886 257.781981,37.7564912 259.729382,31.776354 L212.246015,16.2922488 C210.298614,22.273636 203.874313,25.542461 197.897202,23.5924162 L162.848974,131.231136 C168.824835,133.17868 172.092572,139.607578 170.143922,145.588965" id="Fill-15" fill="#8CE5BD"></path>
                                        <path d="M225.352938,56.6928006 C219.991651,54.9452605 217.061181,49.1776282 218.80872,43.8112551 C220.555011,38.446132 226.31852,35.5148147 231.679807,37.2623548 C237.041094,39.0098949 239.971565,44.7787773 238.225274,50.1439003 C236.477734,55.5090234 230.714226,58.4403407 225.352938,56.6928006" id="Fill-17" fill="#5DC799"></path>
                                        <path d="M198.193372,140.102964 C192.832085,138.354174 189.901614,132.586542 191.649154,127.221419 C193.395445,121.855045 199.158953,118.923728 204.52024,120.672518 C209.881528,122.420058 212.811998,128.187691 211.065708,133.552814 C209.318168,138.919187 203.554659,141.850504 198.193372,140.102964" id="Fill-19" fill="#5DC799"></path>
                                        <path d="M205.946253,112.814713 C192.443104,108.412112 185.064464,93.8880289 189.463917,80.3764689 C193.86462,66.8636589 208.37707,59.4797395 221.878969,63.8823405 C235.382118,68.2861915 242.762007,82.8090247 238.361305,96.3218347 C233.961852,109.833395 219.449402,117.217314 205.946253,112.814713" id="Fill-21" fill="#5DC799"></path>
                                        <path d="M205.072233,95.6598195 C202.818794,94.9248027 201.224898,93.6847742 200.290545,91.9409842 C199.356192,90.1971942 198.975206,88.3296514 199.143839,86.3383557 L196.370759,85.4333349 C195.82114,85.2545808 195.406427,85.1045774 195.12787,84.9808245 C194.848064,84.8570717 194.560763,84.6595672 194.265967,84.3883109 C193.971171,84.1158047 193.810033,83.7757969 193.783801,83.3670375 C193.75632,82.9582781 193.84251,82.4507665 194.039873,81.8432526 C194.237237,81.2369886 194.468327,80.7757281 194.729396,80.4632209 C194.991714,80.1469636 195.326482,79.9757097 195.734949,79.9507091 C196.143417,79.9219585 196.489427,79.9407089 196.772981,80.0019603 C197.057783,80.0607117 197.487486,80.1857145 198.065835,80.3732188 L200.752725,81.250739 C201.398527,80.1494637 202.180486,79.2219424 203.097351,78.4656751 C204.014216,77.7094077 204.764946,77.2181464 205.349541,76.9931413 L206.270154,76.6706339 C207.248226,76.3168758 207.953988,76.2106233 208.387437,76.3531266 C209.108188,76.588132 209.786469,77.3518995 210.421029,78.6469292 C210.78078,79.4031966 210.863223,80.0857122 210.66586,80.6932262 C210.438517,81.3869921 209.655309,82.0745079 208.314988,82.7570235 L208.027687,82.9045269 C206.637399,83.4420392 205.759257,84.2758084 205.393261,85.4020842 C204.696244,87.5408833 205.228375,88.8984144 206.990904,89.4734276 C207.626714,89.6809324 208.248783,89.4359267 208.85961,88.7396608 C209.470437,88.0433948 210.100001,87.1596245 210.750801,86.0946001 C211.402849,85.0258256 212.148583,83.9895518 212.986752,82.9857788 C213.824922,81.9795057 214.940399,81.2557391 216.330687,80.8132289 C217.720974,80.3719688 219.296133,80.4382203 221.058662,81.0132335 C222.763731,81.5694963 224.130285,82.6207704 225.159572,84.173306 C226.18886,85.7220915 226.589832,87.5321331 226.363738,89.6009305 L228.790808,90.3934487 C229.367908,90.582203 229.788866,90.7347065 230.054932,90.8534593 C230.3185,90.9709619 230.602053,91.1584663 230.901846,91.4172222 C231.200389,91.6747281 231.361527,92.0159859 231.384012,92.4384956 C231.406496,92.8610053 231.317808,93.3760171 231.120444,93.9835311 C230.865621,94.763549 230.509617,95.2948111 230.049936,95.5785677 C229.590254,95.8585741 229.164299,95.9673266 228.769572,95.9035751 C228.374846,95.8398236 227.816482,95.6873201 227.094482,95.4523148 L224.668662,94.6610466 C224.231465,95.4148139 223.745552,96.0710789 223.210922,96.6335919 C222.676292,97.1936047 222.266576,97.5723634 221.979275,97.7661178 L221.505853,98.0436242 L221.318482,98.1761272 C220.419105,98.6798888 219.767057,98.8673931 219.362337,98.7361401 C218.900157,98.5848866 218.330552,98.079875 217.651022,97.2186053 C216.750396,96.0610787 216.430617,95.0773062 216.694185,94.2685376 C216.864067,93.7472756 217.287524,93.2310138 217.967053,92.717252 C218.043251,92.6772511 218.201891,92.584749 218.441725,92.4384956 C218.680309,92.2934923 218.886417,92.152239 219.057548,92.0159859 C219.229929,91.8809828 219.427292,91.6409773 219.650887,91.2997195 C219.874482,90.9547116 220.070597,90.5247017 220.240479,90.0046898 C220.419105,89.4546772 220.407863,88.8746639 220.208001,88.2658999 C220.005642,87.6571359 219.617161,87.2571268 219.038811,87.0696224 C218.345541,86.8433673 217.707233,86.96337 217.123887,87.4296307 C216.54179,87.8933913 216.043385,88.5396562 215.631171,89.3646751 C215.218956,90.189694 214.691821,91.0722143 214.049766,92.0134859 C213.406462,92.9560075 212.741922,93.7947767 212.054898,94.5310436 C211.367873,95.2673105 210.416033,95.7623219 209.196877,96.0210778 C207.97897,96.2785837 206.603673,96.158581 205.072233,95.6598195" id="Fill-23" fill="#8CE5BD"></path>
                                        <polygon id="Fill-25" fill="#5DC799" points="110.589914 168.223734 87.9905647 13.9826958 177.632236 0.829894038 200.232835 155.070932"></polygon>
                                        <path d="M129.262233,155.426816 L178.675513,148.175399 C177.763645,141.952757 182.065666,136.166374 188.285109,135.253853 L171.873974,23.2437832 C165.654531,24.1563042 159.872285,19.8512054 158.960417,13.6260626 L109.548385,20.8762289 C110.460254,27.1013717 106.156984,32.8865044 99.9375412,33.7990254 L116.349925,145.809095 C122.569368,144.896574 128.350365,149.202923 129.262233,155.426816" id="Fill-27" fill="#8CE5BD"></path>
                                        <path d="M139.233953,51.2374254 C133.654067,52.0561942 128.467658,48.1923556 127.650724,42.6109775 C126.831292,37.0270994 130.692368,31.8357303 136.271004,31.0169616 C141.85089,30.1994428 147.037299,34.0620314 147.855482,39.6459095 C148.673665,45.2285376 144.813838,50.4186566 139.233953,51.2374254" id="Fill-29" fill="#5DC799"></path>
                                        <path d="M151.951645,138.035042 C146.37176,138.85381 141.185351,134.991222 140.368417,129.408594 C139.550234,123.824716 143.410061,118.633347 148.988697,117.815828 C154.568583,116.997059 159.754991,120.859648 160.573175,126.443526 C161.391358,132.026154 157.531531,137.217523 151.951645,138.035042" id="Fill-31" fill="#5DC799"></path>
                                        <path d="M146.776354,110.142527 C132.724835,112.203824 119.66388,102.477351 117.604057,88.4157783 C115.544233,74.3542057 125.263752,61.2851559 139.315271,59.2238586 C153.36679,57.1613113 166.427745,66.8877845 168.487569,80.949357 C170.547392,95.0121797 160.827873,108.081229 146.776354,110.142527" id="Fill-33" fill="#5DC799"></path>
                                        <path d="M138.373923,95.1641831 C136.029297,95.507941 134.050667,95.1066818 132.440532,93.9604055 C130.82665,92.8128792 129.65621,91.3103447 128.922968,89.4515521 L126.037466,89.8753118 C125.465363,89.9590637 125.026916,90.0078149 124.722127,90.0228152 C124.418588,90.0353155 124.072577,89.9853143 123.687844,89.8753118 C123.301861,89.7615592 123.007065,89.5278038 122.802207,89.1740457 C122.5961,88.8202876 122.447453,88.3265263 122.355017,87.6952618 C122.262581,87.0639973 122.26383,86.5477355 122.358764,86.1514764 C122.453698,85.7527172 122.678543,85.4502103 123.032048,85.2439556 C123.385553,85.0377008 123.704082,84.9001977 123.983889,84.828946 C124.266193,84.7564444 124.707138,84.6764425 125.307972,84.5876905 L128.103536,84.1776811 C128.194722,82.9039019 128.482024,81.7251248 128.967937,80.64135 C129.453851,79.5550751 129.908536,78.7813073 130.331992,78.3187967 L131.012771,77.6212807 C131.732273,76.8700135 132.316868,76.4612541 132.767806,76.3950026 C133.518536,76.285 134.466629,76.6687588 135.608338,77.5450289 C136.266633,78.0625408 136.643871,78.637554 136.736307,79.2700685 C136.841235,79.9913351 136.446508,80.9563572 135.54838,82.1651349 L135.356013,82.4238909 C134.34921,83.5226661 133.933248,84.6601922 134.105629,85.8327191 C134.430404,88.0590201 135.510906,89.0390426 137.344636,88.7690364 C138.006678,88.6727842 138.455117,88.1752728 138.692453,87.2802523 C138.929788,86.3864818 139.103418,85.3139572 139.212093,84.0701786 C139.322017,82.8239 139.528124,81.5638711 139.834162,80.2913419 C140.137702,79.0163127 140.815982,77.8712864 141.864006,76.8562631 C142.91328,75.8437399 144.354781,75.2024752 146.188511,74.932469 C147.962283,74.672463 149.654861,75.0074707 151.264996,75.9399921 C152.875131,76.8700135 154.039325,78.3137966 154.755079,80.2675914 L157.28083,79.8963329 C157.881664,79.8088309 158.327605,79.7588297 158.618653,79.7475795 C158.907203,79.7350792 159.24447,79.7763301 159.626705,79.8763324 C160.00894,79.9725846 160.304985,80.20634 160.512342,80.5750985 C160.720947,80.9438569 160.870844,81.4438684 160.96203,82.0763829 C161.081947,82.8901516 160.998255,83.5226661 160.712203,83.9814266 C160.426152,84.436437 160.091383,84.7239436 159.710397,84.8414463 C159.328162,84.9601991 158.761055,85.0739517 158.009075,85.1839542 L155.484574,85.5539627 C155.427113,86.4227326 155.283463,87.226501 155.054871,87.9690181 C154.82503,88.7090351 154.625169,89.230297 154.455287,89.5315539 L154.154245,89.9903145 L154.044321,90.1915691 C153.463473,91.0440886 152.96257,91.5015991 152.541612,91.5628505 C152.060695,91.6341022 151.324954,91.4353476 150.33439,90.9665868 C149.012806,90.3303223 148.289556,89.5903053 148.167141,88.7477859 C148.087197,88.2065235 148.238342,87.5552586 148.618079,86.7927411 C148.669293,86.7227395 148.769224,86.568986 148.91912,86.3327305 C149.069017,86.0952251 149.190183,85.8777201 149.283868,85.6802156 C149.377553,85.481461 149.447504,85.1802041 149.496221,84.7726948 C149.543688,84.3651854 149.528698,83.8914245 149.448754,83.3514122 C149.365062,82.780149 149.097747,82.2663873 148.648058,81.8088768 C148.195871,81.3526163 147.669985,81.1688621 147.069152,81.2576141 C146.348401,81.3626165 145.83001,81.7538755 145.513979,82.430141 C145.197947,83.1064065 145.039307,83.9051749 145.036809,84.828946 C145.033062,85.7514672 144.953117,86.7764907 144.795726,87.9052666 C144.639584,89.0352925 144.415989,90.0828166 144.127439,91.0465887 C143.838889,92.0128609 143.205577,92.8791307 142.228754,93.6528985 C141.25193,94.4266662 139.96657,94.9304278 138.373923,95.1641831" id="Fill-35" fill="#8CE5BD"></path>
                                        <polygon id="Fill-37" fill="#5DC799" points="81.7561322 200.176342 0.00024982699 67.4820481 77.1205924 19.8984565 158.876475 152.592751"></polygon>
                                        <path d="M93.8423872,181.029153 L136.352948,154.799801 C133.053982,149.444678 134.716581,142.427017 140.067875,139.126942 L80.696491,42.763481 C75.3451969,46.0635567 68.3325533,44.3997686 65.0335879,39.0458957 L22.5230273,65.2739974 C25.8219927,70.6291203 24.1593941,77.6467813 18.8093491,80.948107 L78.1807332,177.310318 C83.5320273,174.010242 90.5434218,175.67403 93.8423872,181.029153" id="Fill-39" fill="#8CE5BD"></path>
                                        <path d="M61.793082,81.3979923 C56.9926564,84.3593103 50.7020128,82.866776 47.7428121,78.0629158 C44.7836114,73.2590556 46.2750785,66.9651612 51.0755042,64.0025933 C55.8759298,61.0412753 62.1653242,62.5338096 65.125774,67.3376698 C68.0849747,72.14153 66.5935076,78.4366744 61.793082,81.3979923" id="Fill-41" fill="#5DC799"></path>
                                        <path d="M107.801345,156.07133 C103.00092,159.032648 96.7102761,157.540114 93.7510754,152.736254 C90.7906256,147.932394 92.2833419,141.637249 97.0837675,138.675931 C101.884193,135.714613 108.173588,137.207148 111.132788,142.011008 C114.093238,146.814868 112.600522,153.110012 107.801345,156.07133" id="Fill-43" fill="#5DC799"></path>
                                        <path d="M92.0169014,132.506415 C79.9290225,139.965336 64.0874931,136.20525 56.6339048,124.107472 C49.1803166,112.010945 52.9377145,96.1580809 65.0268426,88.6991598 C77.1147215,81.2402387 92.9562509,85.000325 100.40859,97.0981025 C107.862178,109.19588 104.10478,125.047494 92.0169014,132.506415" id="Fill-45" fill="#5DC799"></path>
                                        <path d="M78.3764727,122.078926 C76.3591197,123.323954 74.3829882,123.737714 72.4505765,123.323954 C70.5169156,122.908945 68.845573,121.992674 67.4377979,120.575141 L64.9545176,122.106426 C64.4636076,122.411433 64.0801232,122.628938 63.8053135,122.763941 C63.5317529,122.896444 63.1944865,122.987696 62.7960125,123.037698 C62.3987875,123.086449 62.0352893,122.990196 61.7067668,122.745191 C61.3782443,122.501435 61.0459744,122.107676 60.7112062,121.563914 C60.3764381,121.020151 60.1740782,120.54639 60.1041266,120.145131 C60.032926,119.740122 60.1203654,119.375114 60.3639467,119.045106 C60.607528,118.716348 60.8448637,118.462593 61.0734554,118.286339 C61.3045453,118.107584 61.6767875,117.860079 62.1939294,117.541321 L64.5997633,116.057537 C64.1788048,114.85251 63.9776941,113.654982 63.9939329,112.467455 C64.0114208,111.276178 64.1225938,110.386157 64.328701,109.794894 L64.6784588,108.882373 C65.0419571,107.908601 65.4166976,107.302337 65.8051785,107.062331 C66.4509813,106.663572 67.4727737,106.639821 68.8680574,106.99483 C69.678746,107.208584 70.252099,107.587343 70.5868671,108.131106 C70.9691024,108.75237 70.9865903,109.794894 70.6393308,111.259927 L70.5656318,111.573685 C70.0759709,112.982467 70.1434242,114.191245 70.7654934,115.200018 C71.945926,117.115062 73.3249709,117.586323 74.9013792,116.6138 C75.4709848,116.262542 75.6870851,115.628778 75.5509294,114.711257 C75.4147737,113.796236 75.1499571,112.743711 74.7589779,111.558684 C74.3667495,110.369907 74.056964,109.132379 73.834618,107.841099 C73.6097737,106.551069 73.7796561,105.231039 74.3417668,103.883508 C74.9038775,102.537227 75.9743862,101.377201 77.5520436,100.404678 C79.0772374,99.4621567 80.7635696,99.0996484 82.6122893,99.3184034 C84.4585107,99.5346584 86.0973758,100.398428 87.5288844,101.909713 L89.7011301,100.569682 C90.218272,100.250925 90.6080021,100.02717 90.8703204,99.9021668 C91.1301405,99.7759139 91.4574138,99.6821618 91.8471439,99.6209104 C92.236874,99.5571589 92.6003723,99.6571612 92.9376388,99.9134171 C93.2736561,100.169673 93.6096734,100.569682 93.9444415,101.113445 C94.3753931,101.812211 94.5490228,102.427225 94.4678291,102.960987 C94.3853862,103.493499 94.1917702,103.889758 93.8869813,104.148514 C93.5834415,104.40727 93.106272,104.737278 92.4604692,105.136037 L90.2894727,106.477318 C90.5805211,107.296086 90.7653931,108.092355 90.8490851,108.864872 C90.9302789,109.63489 90.9527633,110.192403 90.9165384,110.537411 L90.8216042,111.077423 L90.8003689,111.306178 C90.6042547,112.318702 90.3244484,112.937466 89.9621993,113.159971 C89.5487356,113.416227 88.7942581,113.523729 87.7000159,113.486228 C86.2347806,113.424977 85.2779433,113.032468 84.8320021,112.308701 C84.544701,111.842441 84.4260332,111.183676 84.4722512,110.333656 C84.4922374,110.249904 84.5234657,110.06865 84.5671855,109.791144 C84.6109052,109.514887 84.637137,109.267382 84.6446318,109.047377 C84.6521266,108.828622 84.5971647,108.523615 84.4809952,108.131106 C84.3635765,107.737347 84.1612166,107.309837 83.8751647,106.843576 C83.572874,106.352315 83.1231855,105.986056 82.5298464,105.744801 C81.934009,105.504795 81.3781439,105.543546 80.8610021,105.862304 C80.2414311,106.246062 79.9191543,106.811075 79.897919,107.557342 C79.8741855,108.30236 80.0440678,109.099878 80.4075661,109.948647 C80.7685661,110.797417 81.100836,111.769939 81.4031266,112.869964 C81.7054173,113.96874 81.915272,115.018764 82.0314415,116.017537 C82.1476111,117.01881 81.9102754,118.066334 81.3194346,119.163859 C80.7273446,120.261384 79.7467737,121.232656 78.3764727,122.078926" id="Fill-47" fill="#8CE5BD"></path>
                                    </g>
                                </g>
                            </g>
                            <rect id="Rectangle-6" fill="url(#linearGradient-4)" x="0" y="39.5058568" width="355.798271" height="51.9813905"></rect>
                        </g>
                        <polygon id="Rectangle-54" fill="url(#linearGradient-5)" points="15.2017291 87 340.596542 87 355.798271 175.368364 0 175.368364"></polygon>
                        <g id="Group-50" transform="translate(0.000000, 175.165832)">
                            <rect id="Rectangle-12" fill="#6C2556" x="0" y="0" width="355.799988" height="70"></rect>
                            <path d="M197.049374,27.3171311 C199.070835,27.3171311 200.709316,25.6794369 200.709316,23.6599417 C200.709316,21.639267 199.070835,20 197.049374,20 C195.030272,20 193.392578,21.639267 193.392578,23.6599417 C193.392578,25.6794369 195.030272,27.3171311 197.049374,27.3171311 Z M169.019049,29.2921942 C168.853903,29.7070243 167.665248,33.0645922 164.790534,36.5444466 L164.790534,21.6652184 L157.130922,23.1790534 L157.130922,50.149301 L164.790534,50.149301 L164.790534,41.8125922 C167.00899,45.1398835 168.104456,50.149301 168.104456,50.149301 L177.279083,50.149301 C176.371568,46.3765097 172.401782,39.4199466 172.401782,39.4199466 C175.964602,34.9028204 177.529553,30.0896117 177.778451,29.2921942 L169.019049,29.2921942 Z M189.155806,29.0106602 C182.295184,29.2308544 178.812578,32.3088544 178.812578,38.4275 L178.812578,50.149301 L186.297214,50.149301 L186.297214,40.5905146 C186.297214,36.9266408 186.776922,35.3561845 191.124578,35.2063738 L191.124578,29.1180049 C190.392825,28.9626893 189.155806,29.0106602 189.155806,29.0106602 Z M144.284951,32.2620631 C143.346767,32.2003301 141.174709,32.0599563 141.174709,30.1045534 C141.174709,27.7449369 144.301859,27.7449369 145.474786,27.7449369 C147.537141,27.7449369 150.208175,28.3544029 152.115607,28.9249417 C152.115607,28.9249417 153.179617,29.3000583 154.085165,29.6842184 L154.169311,29.7070243 L154.169311,23.2447184 L154.053709,23.2105097 C151.802617,22.4229223 149.185058,21.6652184 144.332136,21.6652184 C135.964757,21.6652184 133,26.539767 133,30.7155922 C133,33.1227864 134.031767,38.788068 143.614539,39.4415728 C144.426898,39.4915097 146.582835,39.6157621 146.582835,41.6364369 C146.582835,43.304801 144.817743,44.2885971 141.849053,44.2885971 C138.595684,44.2885971 135.43983,43.4589369 133.522961,42.6721359 L133.522961,49.3278981 C136.392563,50.0800971 139.627451,50.456 143.418723,50.456 C151.600117,50.456 155.264383,45.8441117 155.264383,41.2731165 C155.264383,36.0902961 151.164053,32.7228981 144.284951,32.2620631 Z M193.339102,50.149301 L200.763184,50.149301 L200.763184,29.3157864 L193.339102,29.3157864 L193.339102,50.149301 Z M214.742369,22.9934612 L214.742369,50.149301 L222.167631,50.149301 L222.167631,21.6652184 L214.742369,22.9934612 Z M203.908029,22.9934612 L211.326214,21.6652184 L211.326214,50.149301 L203.908029,50.149301 L203.908029,22.9934612 Z" id="Fill-1" fill="#FFFFFF"></path>
                        </g>
                        <g id="lock" transform="translate(127.000000, 0.000000)" fill-rule="nonzero">
                            <g id="Group" transform="translate(0.000000, 1.000000)">
                                <path d="M96.7905368,149.205463 L13.1765172,149.205463 C5.15873455,149.205463 0.290795056,143.47243 0.290795056,136.306139 L0.290795056,78.4025063 C0.290795056,71.2362152 6.0177827,65.5031822 13.1765172,65.5031822 L96.7905368,65.5031822 C103.949271,65.5031822 109.676259,71.2362152 109.676259,78.4025063 L109.676259,136.592791 C109.676259,143.47243 103.949271,149.205463 96.7905368,149.205463 Z" id="Shape" fill="url(#linearGradient-6)"></path>
                                <path d="M96.7905368,65.2165306 L13.1765172,65.2165306 C6.0177827,65.2165306 0.577144438,71.2362152 0.577144438,78.4025063 L0.577144438,86.4287525 C0.577144438,80.1224162 6.59048146,75.2493382 13.1765172,75.2493382 L96.7905368,75.2493382 C103.949271,75.2493382 109.38991,80.6957195 109.38991,87.8620107 L109.38991,78.4025063 C109.38991,71.2362152 103.949271,65.2165306 96.7905368,65.2165306 Z" id="Shape" fill="#FF9B39" opacity="0.5"></path>
                                <g transform="translate(43.815901, 82.128978)" fill="#502617">
                                    <path d="M22.0489024,11.1794142 C22.0489024,17.1990988 17.1809629,22.0721769 11.1676259,22.0721769 C5.15428888,22.0721769 0.286349382,17.1990988 0.286349382,11.1794142 C0.286349382,5.15972965 5.15428888,0.286651647 11.1676259,0.286651647 C17.1809629,0.286651647 22.0489024,5.15972965 22.0489024,11.1794142 Z" id="Shape"></path>
                                    <rect id="Rectangle-path" x="5.72698764" y="16.9124472" width="10.8812765" height="32.6782878"></rect>
                                </g>
                                <path d="M91.9225973,72.3828217 C88.7727541,72.3828217 86.481959,69.8029569 86.481959,66.9364404 L86.481959,29.9583779 C86.481959,19.6389186 77.8914776,11.0393692 67.5828998,11.0393692 L42.3841542,11.0393692 C32.0755765,11.0393692 23.485095,19.6389186 23.485095,29.9583779 L23.485095,66.9364404 C23.485095,70.0896086 20.9079506,72.3828217 18.0444567,72.3828217 C15.1809629,72.3828217 12.6038185,69.8029569 12.6038185,66.9364404 L12.6038185,29.9583779 C12.6038185,13.619234 26.0622394,0.14660659 42.3841542,0.14660659 L67.5828998,0.14660659 C83.9048146,0.14660659 97.3632356,13.619234 97.3632356,29.9583779 L97.3632356,66.9364404 C97.3632356,70.0896086 95.0724405,72.3828217 91.9225973,72.3828217 Z" id="Shape" fill="#C37A54"></path>
                            </g>
                            <path d="M54.6971776,66.2165306 L86.481959,66.2165306 L86.481959,30.9583779 C86.481959,20.6389186 77.8914776,12.0393692 67.5828998,12.0393692 L54.6971776,12.0393692 L54.6971776,0.859954942 L67.5828998,0.859954942 C83.9048146,0.859954942 97.3632356,14.3325824 97.3632356,30.6717263 L97.3632356,65.9298789 C100.799428,66.2165306 103.662922,67.6497888 105.667368,69.6563503 C107.958163,71.9495635 109.676259,75.3893833 109.676259,78.829203 L109.676259,137.019487 C109.676259,144.185779 104.808319,149.918812 96.7905368,149.918812 L54.6971776,149.918812 L54.6971776,66.2165306 Z" id="Shape" fill="#000000" opacity="0.1"></path>
                        </g>
                    </g>
                </g>
            </g>
        </g>
    </g>
</svg>