<?xml version="1.0" standalone="no"?>
<!DOCTYPE svg PUBLIC "-//W3C//DTD SVG 20010904//EN"
 "http://www.w3.org/TR/2001/REC-SVG-20010904/DTD/svg10.dtd">
<svg version="1.0" xmlns="http://www.w3.org/2000/svg"
 width="2134.000000pt" height="2134.000000pt" viewBox="0 0 2134.000000 2134.000000"
 preserveAspectRatio="xMidYMid meet">
<metadata>
Created by potrace 1.11, written by Peter Selinger 2001-2013
</metadata>
<g transform="translate(0.000000,2134.000000) scale(0.100000,-0.100000)"
fill="#000000" stroke="none">
<path d="M14888 21315 c-46 -12 -112 -36 -147 -54 -118 -60 -146 -85 -498
-447 -149 -153 -635 -653 -748 -769 -114 -117 -605 -621 -770 -790 -60 -62
-234 -241 -386 -397 -152 -155 -316 -323 -364 -373 -92 -95 -615 -632 -750
-770 -94 -96 -565 -580 -714 -733 -57 -59 -232 -239 -390 -400 -157 -162 -330
-339 -384 -395 -55 -56 -230 -236 -390 -401 -161 -164 -332 -340 -382 -391
-49 -51 -214 -220 -365 -375 -151 -155 -317 -326 -369 -379 -51 -53 -224 -230
-385 -395 -160 -164 -333 -342 -385 -395 -51 -53 -214 -220 -361 -371 -147
-151 -307 -315 -355 -365 -48 -49 -223 -229 -389 -399 -165 -169 -339 -347
-385 -395 -46 -47 -138 -142 -205 -211 -165 -170 -224 -264 -271 -430 -27 -94
-26 -307 3 -411 75 -278 274 -485 547 -571 l70 -22 1115 -3 c1695 -4 2233 -8
2259 -16 177 -50 281 -108 390 -217 73 -74 125 -152 169 -252 70 -163 65 46
67 -2703 1 -1364 5 -2496 9 -2515 34 -169 102 -309 204 -417 49 -52 381 -394
706 -727 103 -106 322 -330 741 -761 66 -67 246 -252 400 -410 154 -158 320
-328 369 -378 124 -128 645 -663 858 -881 97 -100 222 -228 278 -286 103 -106
556 -570 776 -796 133 -137 188 -181 283 -229 147 -73 291 -95 458 -68 282 45
530 251 620 515 23 67 27 85 39 167 9 59 9 19866 0 19948 -8 78 -57 229 -91
282 -14 22 -25 45 -25 51 0 5 -4 10 -8 10 -4 0 -15 12 -24 28 -23 39 -109 125
-171 170 -183 135 -432 184 -649 127z"/>
</g>
</svg>
